<svg width="142" height="44" viewBox="0 0 142 44" fill="none" xmlns="http://www.w3.org/2000/svg">
<path d="M9.82531e-05 17.0863C0.0112009 17.0497 0.0265283 17.0137 0.0325218 16.9762C0.0427401 16.9116 0.0456877 16.846 0.0541375 16.7811C0.0658296 16.6913 0.0667139 16.691 0.16084 16.6735C0.528307 16.605 0.883787 16.6445 1.22767 16.7911C1.50819 16.9107 1.75058 17.0867 1.97666 17.2882C2.6772 17.9126 3.14076 18.686 3.41832 19.5765C3.58349 20.1064 3.68086 20.6497 3.73588 21.2012C3.73971 21.2399 3.74335 21.2786 3.74757 21.323C3.71967 21.3356 3.69422 21.3493 3.6673 21.3589C3.00045 21.5949 2.3677 21.532 1.77317 21.1406C1.27759 20.8144 0.909333 20.3742 0.629901 19.8559C0.286408 19.2187 0.0981549 18.5359 0.0337008 17.8167C0.0294759 17.7691 0.0115939 17.7227 0 17.6757C0 17.4791 0 17.2827 0 17.0862L9.82531e-05 17.0863Z" fill="#FFFFFF"/>
<path d="M4.17392 21.2265C4.14002 21.0623 4.10219 20.9002 4.0739 20.7366C3.99765 20.2956 3.97397 19.8519 4.03351 19.4072C4.14218 18.5958 4.4728 17.8893 5.06262 17.3169C5.53482 16.8585 6.11058 16.666 6.76583 16.7091C6.85014 16.7146 6.93404 16.7249 7.01893 16.7331C7.07081 16.8766 7.09636 17.0178 7.11365 17.1602C7.19589 17.8358 7.07848 18.4836 6.83117 19.1112C6.64479 19.5842 6.38776 20.0155 6.04063 20.3895C5.70745 20.7485 5.31975 21.0242 4.84253 21.1602C4.62234 21.223 4.38673 21.2483 4.17392 21.2265Z" fill="#FFFFFF"/>
<path d="M0.355366 11.1822C0.553543 11.2684 0.745333 11.3518 0.937025 11.4353C1.00305 11.464 1.06809 11.4951 1.135 11.5214C1.59856 11.7031 1.94343 12.0321 2.24802 12.4127C2.71334 12.9942 3.00122 13.6573 3.15941 14.3805C3.30001 15.0235 3.33637 15.6758 3.33499 16.3315C3.33479 16.4097 3.33499 16.488 3.33499 16.578C3.22858 16.5946 3.12994 16.6153 3.03011 16.6246C2.55958 16.6684 2.11813 16.5829 1.71765 16.3213C1.47919 16.1656 1.2816 15.967 1.10779 15.7432C0.582822 15.0671 0.276764 14.3037 0.186862 13.4521C0.131546 12.928 0.15493 12.4063 0.227048 11.8862C0.256229 11.6757 0.297299 11.467 0.333751 11.2576C0.338074 11.2328 0.347604 11.2089 0.355465 11.1822H0.355366Z" fill="#FFFFFF"/>
<path d="M3.73563 16.5738C3.68336 15.8589 3.71873 15.1598 3.96888 14.4863C4.22434 13.7983 4.65999 13.2486 5.27771 12.852C5.78607 12.5256 6.3414 12.4495 6.92719 12.5906C7.12664 12.6387 7.28758 12.8536 7.26979 13.0575C7.19119 13.9617 6.92119 14.7942 6.33236 15.5024C6.03249 15.863 5.68438 16.1689 5.2673 16.3894C4.8002 16.6364 4.30609 16.6959 3.79036 16.5922C3.77464 16.589 3.7597 16.5819 3.73573 16.5737L3.73563 16.5738Z" fill="#FFFFFF"/>
<path d="M2.994 27.2152C3.36373 27.3669 3.72226 27.5098 4.07724 27.6609C4.35137 27.7775 4.58924 27.9477 4.79714 28.1633C5.14133 28.5201 5.44876 28.9066 5.74263 29.3046C5.98768 29.6365 6.23154 29.9691 6.47482 30.3023C6.50744 30.347 6.53819 30.3944 6.56187 30.4443C6.63526 30.5991 6.61237 30.7386 6.48985 30.8573C6.4363 30.9091 6.37568 30.9568 6.31093 30.9936C5.72534 31.3278 5.11214 31.4101 4.46859 31.1838C4.00965 31.0225 3.6186 30.7506 3.26282 30.4257C2.71713 29.9274 2.34141 29.3152 2.08163 28.6288C2.01108 28.4424 1.96461 28.2466 1.89042 28.0618C1.82106 27.8889 1.96952 27.5626 2.15561 27.5075C2.31851 27.4593 2.4824 27.4145 2.64629 27.3697C2.6904 27.3576 2.73579 27.3503 2.78089 27.3424C2.86618 27.3277 2.94773 27.3067 2.99391 27.2152H2.994Z" fill="#FFFFFF"/>
<path d="M8.38713 25.1821C8.45994 25.3444 8.53697 25.4995 8.60005 25.6601C8.8446 26.2827 8.93686 26.9281 8.87968 27.5952C8.82623 28.2187 8.6476 28.8015 8.31394 29.333C8.02252 29.7971 7.63992 30.1655 7.15013 30.4177C7.11535 30.4356 7.07968 30.4517 7.04225 30.4696C7.03114 30.4589 7.01975 30.4518 7.01316 30.4415C6.68804 29.9352 6.44988 29.3933 6.342 28.7984C6.2239 28.1469 6.28137 27.5081 6.48505 26.8805C6.61209 26.4891 6.80261 26.1345 7.09422 25.8394C7.44666 25.4826 7.87818 25.2798 8.38713 25.1821Z" fill="#FFFFFF"/>
<path d="M8.98719 34.4725C8.86761 34.6248 8.7388 34.7587 8.59702 34.8805C8.29755 35.138 7.95838 35.3118 7.56478 35.3711C7.23455 35.4209 6.91139 35.3812 6.59472 35.2859C5.77706 35.0398 5.12181 34.5605 4.60235 33.8885C4.32871 33.5345 4.10725 33.1492 3.91988 32.7439C3.90131 32.7036 3.8852 32.6553 3.88932 32.6128C3.90691 32.4298 3.97726 32.2681 4.12936 32.1582C4.41802 31.9497 4.74324 31.8418 5.09931 31.8234C5.56523 31.7994 6.00029 31.9237 6.42504 32.0962C7.10564 32.3727 7.67305 32.8072 8.16156 33.3501C8.47126 33.6942 8.73939 34.0692 8.98728 34.4727L8.98719 34.4725Z" fill="#FFFFFF"/>
<path d="M9.85431 28.7631C10.036 28.9896 10.182 29.2255 10.302 29.4773C10.6376 30.1816 10.7702 30.9235 10.7036 31.7004C10.6531 32.29 10.4876 32.843 10.1668 33.3444C9.97585 33.6428 9.73719 33.8964 9.4445 34.0977C9.41541 34.1178 9.38476 34.1355 9.34949 34.1576C9.3147 34.1259 9.28277 34.0985 9.25271 34.0691C8.83503 33.6624 8.5614 33.1688 8.38503 32.6182C8.24512 32.1814 8.17752 31.7328 8.19118 31.2743C8.20651 30.7606 8.31262 30.2682 8.5666 29.8154C8.831 29.3442 9.21331 29.0063 9.71813 28.8096C9.76038 28.7932 9.804 28.7802 9.85421 28.7631H9.85431Z" fill="#FFFFFF"/>
<path d="M0.417969 22.3603C0.604748 22.2673 0.797226 22.2087 0.999824 22.1811C1.42585 22.123 1.81906 22.2277 2.19203 22.4245C2.98179 22.841 3.58359 23.4499 4.02307 24.2233C4.32589 24.7564 4.5332 25.3272 4.69277 25.9168C4.70986 25.9799 4.70465 26.0402 4.67537 26.0981C4.5897 26.2677 4.47032 26.3944 4.28108 26.4566C3.62338 26.6728 3.00694 26.5844 2.43216 26.2093C1.89894 25.8614 1.4851 25.3971 1.1589 24.8533C0.848907 24.3366 0.654759 23.7755 0.538132 23.1872C0.49048 22.9467 0.460119 22.7028 0.42298 22.4603C0.418165 22.4286 0.419639 22.3958 0.418067 22.3602L0.417969 22.3603Z" fill="#FFFFFF"/>
<path d="M7.30726 21.1136C7.3164 21.1275 7.32426 21.1348 7.32632 21.1434C7.40414 21.4709 7.51644 21.7912 7.55319 22.1272C7.57549 22.3315 7.58837 22.5386 7.58198 22.7438C7.55968 23.4612 7.36189 24.1292 6.98853 24.7437C6.7933 25.0649 6.5628 25.3558 6.26391 25.5883C5.95894 25.8255 5.61476 25.9778 5.23933 26.0626C5.22685 26.0654 5.21388 26.066 5.19404 26.0685C5.18185 26.0425 5.1682 26.0175 5.15808 25.991C4.99026 25.5526 4.86243 25.1034 4.80574 24.6365C4.68322 23.6265 4.9318 22.7161 5.54912 21.9071C5.70741 21.6996 5.90126 21.5378 6.15436 21.4579C6.40992 21.3773 6.66597 21.2978 6.9225 21.2203C7.05004 21.1817 7.17934 21.1487 7.30726 21.1135V21.1136Z" fill="#FFFFFF"/>
<path d="M10.1191 39.4374C9.68043 39.4295 9.27032 39.3134 8.87406 39.1399C8.1353 38.8163 7.54912 38.3067 7.07672 37.6596C7.02465 37.5883 6.97797 37.5129 6.92492 37.4424C6.86882 37.3678 6.84681 37.2843 6.85241 37.1936C6.85624 37.1319 6.86479 37.0702 6.8753 37.0092C6.89249 36.9093 6.94919 36.8428 7.03938 36.7918C7.42149 36.5755 7.81892 36.3905 8.21675 36.2064C8.24505 36.1933 8.27983 36.1866 8.31088 36.1886C9.08511 36.2381 9.8224 36.4196 10.5029 36.8035C11.0482 37.1112 11.5081 37.5208 11.9227 37.9853C11.9671 38.035 11.9825 38.0939 11.9841 38.157C11.9882 38.3283 11.9514 38.4871 11.8436 38.6264C11.5222 39.0418 11.0971 39.2859 10.5858 39.3824C10.4323 39.4114 10.2748 39.4196 10.119 39.4374H10.1191Z" fill="#FFFFFF"/>
<path d="M12.1045 32.4089C12.1326 32.4359 12.1587 32.4596 12.1834 32.4849C12.7713 33.0838 13.1373 33.7996 13.3001 34.62C13.4217 35.2331 13.4111 35.8437 13.2404 36.4475C13.1016 36.9381 12.8643 37.3736 12.5039 37.7382C12.4857 37.7567 12.4663 37.7741 12.439 37.7999C12.4014 37.7757 12.3631 37.7528 12.3263 37.7274C11.6425 37.2539 11.193 36.6113 10.9628 35.8162C10.7618 35.1216 10.7598 34.4269 11.0066 33.7413C11.1963 33.2142 11.5201 32.788 11.9909 32.4781C12.026 32.4549 12.0627 32.4341 12.1045 32.4088V32.4089Z" fill="#FFFFFF"/>
<path d="M10.2402 41.0998C10.4207 40.7146 10.6778 40.4036 11.0293 40.1737C11.4294 39.9122 11.8738 39.7955 12.3473 39.7786C12.9368 39.7576 13.497 39.8884 14.038 40.1126C14.6208 40.3542 15.1424 40.6941 15.6183 41.1061C15.638 41.1231 15.6588 41.1387 15.6813 41.1566C15.6637 41.2019 15.6505 41.2383 15.6356 41.2738C15.5065 41.5813 15.3376 41.863 15.1014 42.1015C14.7791 42.4269 14.3879 42.618 13.9382 42.6867C13.0236 42.8264 12.1843 42.622 11.4123 42.1212C10.9868 41.8451 10.6143 41.5072 10.2693 41.1376C10.2606 41.1281 10.2535 41.1172 10.2402 41.0999V41.0998Z" fill="#FFFFFF"/>
<path d="M14.7457 35.4453C14.9003 35.5467 15.0365 35.6535 15.1643 35.7705C15.8996 36.443 16.348 37.2713 16.4933 38.2572C16.5949 38.9478 16.5115 39.6153 16.1954 40.2453C16.1101 40.4152 16.0091 40.575 15.8886 40.7211C15.8736 40.7186 15.863 40.7194 15.8552 40.7151C15.2155 40.3547 14.6802 39.8835 14.3121 39.2403C13.9853 38.6693 13.8117 38.0533 13.8145 37.394C13.8174 36.6943 14.0842 36.1021 14.5747 35.6077C14.6275 35.5545 14.6834 35.5044 14.7457 35.4454V35.4453Z" fill="#FFFFFF"/>
<path d="M4.40925 0.874842C4.54047 0.982669 4.6807 1.08149 4.80122 1.20019C5.11802 1.5122 5.32256 1.89426 5.45658 2.31499C5.67673 3.0061 5.69531 3.71112 5.58734 4.4224C5.45731 5.2792 5.15065 6.07079 4.69293 6.80519C4.67748 6.82986 4.66401 6.8557 4.64757 6.88471C4.60079 6.86415 4.56476 6.84982 4.52989 6.83282C3.99542 6.57262 3.61982 6.15827 3.3661 5.62768C3.14489 5.1652 3.04355 4.67336 3.03372 4.16387C3.01467 3.16916 3.29395 2.26514 3.87992 1.45863C4.01491 1.2728 4.16811 1.10246 4.33445 0.94395C4.35509 0.924323 4.37141 0.900114 4.38977 0.878065C4.39627 0.877023 4.40267 0.875997 4.40917 0.874955L4.40925 0.874842Z" fill="#FFFFFF"/>
<path d="M9.90414 0.0946982C9.8804 0.281199 9.86452 0.45032 9.83659 0.617493C9.66538 1.64131 9.25711 2.55695 8.57468 3.344C8.142 3.84293 7.629 4.23683 7.02088 4.50109C6.7498 4.61888 6.469 4.70588 6.17657 4.75316C6.15095 4.75727 6.12497 4.75905 6.08724 4.7633C6.07869 4.72855 6.0682 4.69541 6.06258 4.66158C5.94581 3.96424 6.00413 3.28332 6.2774 2.62923C6.61181 1.82891 7.12434 1.16453 7.83873 0.665613C8.34855 0.309543 8.92196 0.134829 9.54031 0.101975C9.65406 0.0958794 9.76813 0.0972965 9.90405 0.0948108L9.90414 0.0946982Z" fill="#FFFFFF"/>
<path d="M5.02195 7.29015C5.0458 7.21797 5.06766 7.1464 5.09291 7.07608C5.30212 6.49416 5.61058 5.97513 6.06723 5.55186C6.54952 5.10477 7.11653 4.84481 7.7747 4.79403C8.12569 4.76692 8.46621 4.82717 8.79993 4.93189C9.03505 5.00564 9.26043 5.10305 9.47405 5.22523C9.55304 5.27038 9.62895 5.32429 9.69675 5.38477C9.80813 5.48423 9.83612 5.61169 9.78379 5.75143C9.75991 5.81536 9.73078 5.87944 9.69229 5.93546C9.28335 6.53159 8.7937 7.04573 8.14834 7.388C7.44337 7.76193 6.70354 7.85386 5.93497 7.61008C5.63869 7.51608 5.34637 7.4095 5.05243 7.30835C5.04348 7.30531 5.03572 7.29849 5.02193 7.29006L5.02195 7.29015Z" fill="#FFFFFF"/>
<path d="M1.59531 6.10068C1.66448 6.11139 1.73237 6.11837 1.79869 6.13262C2.21194 6.22124 2.5405 6.45115 2.82308 6.75456C3.11676 7.06985 3.33301 7.43516 3.49965 7.83004C3.84295 8.64367 3.97382 9.49445 3.93334 10.3737C3.9131 10.8136 3.84314 11.2457 3.72347 11.6697C3.71197 11.7102 3.69861 11.7502 3.68554 11.7926C3.49916 11.8076 3.32122 11.7894 3.14496 11.7498C2.6699 11.643 2.29585 11.379 2.00542 10.9969C1.61702 10.486 1.36402 9.91104 1.23167 9.28359C1.11829 8.74615 1.11465 8.20527 1.18795 7.66212C1.25653 7.15376 1.38986 6.6621 1.56112 6.17978C1.56966 6.15571 1.58145 6.13281 1.5955 6.10059L1.59531 6.10068Z" fill="#FFFFFF"/>
<path d="M8.16182 8.63292C8.08734 8.99577 8.02593 9.34722 7.94124 9.69287C7.85438 10.0474 7.66092 10.3544 7.45724 10.6525C7.1729 11.0688 6.82449 11.4207 6.38422 11.6726C5.84029 11.9837 5.25647 12.122 4.62971 12.0512C4.54286 12.0414 4.45522 12.0194 4.37367 11.988C4.24555 11.9386 4.18188 11.8371 4.1749 11.6989C4.16802 11.5626 4.19504 11.4317 4.23199 11.3023C4.33839 10.93 4.48047 10.5714 4.64809 10.2227C4.81866 9.86786 5.01192 9.52545 5.24724 9.20976C5.53836 8.8193 5.92548 8.56876 6.40436 8.47247C6.6439 8.42432 6.88777 8.43896 7.12849 8.47227C7.41686 8.51226 7.70396 8.56188 7.99164 8.60717C8.04283 8.61523 8.09422 8.6227 8.16182 8.63292Z" fill="#FFFFFF"/>
<path d="M16.5372 41.4229C16.6404 41.4053 16.7301 41.3889 16.8201 41.375C16.9002 41.3627 16.9741 41.3793 17.0468 41.4178C17.9519 41.8964 18.8577 42.3736 19.7632 42.8511C19.7661 42.8526 19.7689 42.8543 19.7718 42.856C19.9408 42.9552 20.0563 43.1116 20.2087 43.2495C20.0474 43.3099 19.9008 43.3646 19.7544 43.4196C19.6972 43.4411 19.6469 43.4246 19.5951 43.3981C19.2863 43.2405 18.9744 43.0889 18.6677 42.927C18.0255 42.5882 17.3866 42.243 16.7447 41.9036C16.6586 41.8581 16.608 41.7969 16.5912 41.7031C16.5752 41.6136 16.5569 41.5244 16.5371 41.4229H16.5372Z" fill="#FFFFFF"/>
<text font-family="inter, sans-serif" font-size="9" letter-spacing="0.3px" font-weight="medium" fill="#FFFFFF">
  <tspan x="14" y="15">PRODUCT OF THE WEEK</tspan>
</text>
<text font-family="inter, sans-serif" font-size="16" font-weight="bold" fill="#FFFFFF">
  <tspan x="57" y="37">2nd</tspan>
</text>
<path d="M141.642 17.3817C141.632 17.3464 141.617 17.3119 141.611 17.2758C141.601 17.2137 141.599 17.1506 141.591 17.0881C141.579 17.0018 141.578 17.0015 141.488 16.9847C141.135 16.9188 140.793 16.9568 140.462 17.0978C140.192 17.2128 139.959 17.3821 139.742 17.5759C139.068 18.1763 138.622 18.92 138.355 19.7763C138.197 20.286 138.103 20.8084 138.05 21.3388C138.046 21.376 138.043 21.4132 138.039 21.4559C138.066 21.468 138.09 21.4812 138.116 21.4904C138.757 21.7174 139.366 21.6569 139.937 21.2806C140.414 20.9668 140.768 20.5435 141.037 20.0451C141.367 19.4323 141.548 18.7756 141.61 18.0841C141.614 18.0383 141.631 17.9937 141.643 17.9484C141.643 17.7594 141.643 17.5706 141.643 17.3816L141.642 17.3817Z" fill="#FFFFFF"/>
<path d="M137.628 21.3631C137.66 21.2052 137.697 21.0494 137.724 20.8919C137.797 20.4679 137.82 20.0412 137.763 19.6136C137.658 18.8333 137.34 18.1538 136.773 17.6034C136.319 17.1626 135.765 16.9775 135.135 17.0189C135.054 17.0242 134.973 17.0341 134.892 17.042C134.842 17.18 134.817 17.3158 134.801 17.4528C134.722 18.1024 134.835 18.7254 135.072 19.3289C135.252 19.7838 135.499 20.1985 135.833 20.5582C136.153 20.9035 136.526 21.1686 136.985 21.2994C137.196 21.3597 137.423 21.384 137.628 21.3631Z" fill="#FFFFFF"/>
<path d="M141.301 11.7039C141.11 11.7868 140.926 11.867 140.741 11.9473C140.678 11.9749 140.615 12.0049 140.551 12.0301C140.105 12.2049 139.774 12.5212 139.481 12.8873C139.033 13.4464 138.756 14.0841 138.604 14.7796C138.469 15.3979 138.434 16.0252 138.435 16.6558C138.436 16.731 138.435 16.8062 138.435 16.8928C138.538 16.9088 138.633 16.9287 138.729 16.9377C139.181 16.9798 139.606 16.8975 139.991 16.646C140.22 16.4962 140.41 16.3053 140.577 16.09C141.082 15.4399 141.376 14.7057 141.463 13.8868C141.516 13.3827 141.493 12.8811 141.424 12.3809C141.396 12.1785 141.357 11.9778 141.322 11.7765C141.317 11.7526 141.308 11.7296 141.301 11.7039H141.301Z" fill="#FFFFFF"/>
<path d="M138.05 16.8888C138.101 16.2013 138.067 15.529 137.826 14.8813C137.58 14.2198 137.161 13.6911 136.567 13.3097C136.079 12.9958 135.545 12.9227 134.981 13.0583C134.789 13.1045 134.635 13.3113 134.652 13.5073C134.727 14.3769 134.987 15.1775 135.553 15.8585C135.842 16.2053 136.176 16.4994 136.577 16.7114C137.027 16.949 137.502 17.0062 137.998 16.9065C138.013 16.9034 138.027 16.8966 138.05 16.8887L138.05 16.8888Z" fill="#FFFFFF"/>
<path d="M138.764 27.1222C138.408 27.2681 138.064 27.4055 137.722 27.5508C137.459 27.6629 137.23 27.8266 137.03 28.0339C136.699 28.3771 136.403 28.7488 136.121 29.1314C135.885 29.4506 135.651 29.7705 135.417 30.0909C135.385 30.1339 135.356 30.1795 135.333 30.2275C135.262 30.3764 135.284 30.5105 135.402 30.6246C135.454 30.6745 135.512 30.7203 135.574 30.7557C136.137 31.0771 136.727 31.1563 137.346 30.9387C137.787 30.7835 138.163 30.522 138.505 30.2096C139.03 29.7304 139.391 29.1416 139.641 28.4816C139.709 28.3023 139.754 28.114 139.825 27.9363C139.892 27.7701 139.749 27.4563 139.57 27.4033C139.413 27.3569 139.256 27.3138 139.098 27.2707C139.056 27.2591 139.012 27.2521 138.969 27.2446C138.887 27.2304 138.808 27.2102 138.764 27.1222H138.764Z" fill="#FFFFFF"/>
<path d="M133.578 25.167C133.508 25.3231 133.434 25.4723 133.374 25.6267C133.139 26.2255 133.05 26.8461 133.105 27.4876C133.156 28.0872 133.328 28.6477 133.649 29.1588C133.929 29.6051 134.297 29.9593 134.768 30.2019C134.801 30.2191 134.836 30.2346 134.872 30.2518C134.882 30.2416 134.893 30.2347 134.9 30.2248C135.212 29.7379 135.441 29.2168 135.545 28.6447C135.659 28.0181 135.603 27.4039 135.408 26.8003C135.285 26.424 135.102 26.083 134.822 25.7991C134.483 25.4561 134.068 25.261 133.578 25.167Z" fill="#FFFFFF"/>
<path d="M133.001 34.1012C133.116 34.2477 133.24 34.3765 133.377 34.4936C133.665 34.7412 133.991 34.9083 134.369 34.9654C134.687 35.0133 134.998 34.9751 135.302 34.8835C136.088 34.6468 136.718 34.1859 137.218 33.5396C137.481 33.1992 137.694 32.8287 137.874 32.4389C137.892 32.4002 137.908 32.3537 137.904 32.3128C137.887 32.1369 137.819 31.9813 137.673 31.8757C137.395 31.6752 137.083 31.5714 136.74 31.5537C136.292 31.5306 135.874 31.6502 135.465 31.8161C134.811 32.082 134.265 32.4998 133.795 33.0218C133.498 33.3528 133.24 33.7134 133.001 34.1014L133.001 34.1012Z" fill="#FFFFFF"/>
<path d="M132.167 28.6107C131.992 28.8286 131.852 29.0554 131.736 29.2975C131.413 29.9749 131.286 30.6884 131.35 31.4354C131.398 32.0024 131.558 32.5342 131.866 33.0164C132.05 33.3033 132.279 33.5472 132.561 33.7408C132.589 33.7601 132.618 33.7772 132.652 33.7984C132.686 33.7679 132.716 33.7416 132.745 33.7133C133.147 33.3221 133.41 32.8475 133.58 32.318C133.714 31.898 133.779 31.4665 133.766 31.0257C133.751 30.5317 133.649 30.0581 133.405 29.6227C133.151 29.1696 132.783 28.8446 132.298 28.6555C132.257 28.6397 132.215 28.6271 132.167 28.6107H132.167Z" fill="#FFFFFF"/>
<path d="M141.24 22.4534C141.061 22.364 140.876 22.3076 140.681 22.2811C140.271 22.2252 139.893 22.3259 139.534 22.5152C138.775 22.9157 138.196 23.5013 137.774 24.245C137.482 24.7576 137.283 25.3066 137.13 25.8736C137.113 25.9343 137.118 25.9923 137.146 26.0479C137.229 26.211 137.343 26.3329 137.525 26.3927C138.158 26.6006 138.751 26.5155 139.303 26.1549C139.816 25.8203 140.214 25.3738 140.528 24.8509C140.826 24.354 141.013 23.8144 141.125 23.2486C141.171 23.0174 141.2 22.7828 141.235 22.5496C141.24 22.5191 141.239 22.4876 141.24 22.4533L141.24 22.4534Z" fill="#FFFFFF"/>
<path d="M134.616 21.2545C134.607 21.2679 134.6 21.2749 134.598 21.2832C134.523 21.5981 134.415 21.9062 134.38 22.2293C134.358 22.4257 134.346 22.6249 134.352 22.8222C134.373 23.5121 134.564 24.1546 134.923 24.7455C135.11 25.0543 135.332 25.3341 135.619 25.5577C135.913 25.7858 136.244 25.9322 136.605 26.0138C136.617 26.0165 136.629 26.0171 136.648 26.0194C136.66 25.9945 136.673 25.9704 136.683 25.945C136.844 25.5234 136.967 25.0914 137.022 24.6424C137.139 23.6711 136.9 22.7956 136.307 22.0176C136.155 21.8181 135.968 21.6625 135.725 21.5857C135.479 21.5081 135.233 21.4317 134.986 21.3571C134.863 21.3201 134.739 21.2883 134.616 21.2544V21.2545Z" fill="#FFFFFF"/>
<path d="M131.911 38.8758C132.332 38.8681 132.727 38.7565 133.108 38.5897C133.818 38.2785 134.382 37.7884 134.836 37.1661C134.886 37.0975 134.931 37.0251 134.982 36.9572C135.036 36.8855 135.057 36.8052 135.052 36.718C135.048 36.6587 135.04 36.5993 135.03 36.5406C135.013 36.4446 134.959 36.3807 134.872 36.3316C134.505 36.1236 134.123 35.9457 133.74 35.7686C133.713 35.756 133.679 35.7496 133.649 35.7515C132.905 35.7991 132.196 35.9736 131.542 36.3429C131.017 36.6387 130.575 37.0326 130.176 37.4794C130.134 37.5272 130.119 37.5838 130.117 37.6444C130.113 37.8092 130.149 37.9619 130.252 38.0959C130.561 38.4954 130.97 38.7301 131.462 38.8229C131.609 38.8507 131.761 38.8587 131.911 38.8758H131.911Z" fill="#FFFFFF"/>
<path d="M130.004 32.1167C129.977 32.1427 129.951 32.1656 129.928 32.1898C129.362 32.7658 129.01 33.4541 128.854 34.2431C128.737 34.8327 128.747 35.4198 128.911 36.0005C129.045 36.4723 129.273 36.8911 129.619 37.2417C129.637 37.2595 129.656 37.2762 129.682 37.301C129.718 37.2778 129.755 37.2558 129.79 37.2313C130.448 36.776 130.88 36.158 131.101 35.3934C131.295 34.7255 131.297 34.0573 131.059 33.398C130.877 32.8912 130.565 32.4813 130.113 32.1833C130.079 32.161 130.044 32.141 130.004 32.1166V32.1167Z" fill="#FFFFFF"/>
<path d="M131.795 40.4745C131.621 40.104 131.374 39.8049 131.036 39.5838C130.651 39.3323 130.224 39.2202 129.769 39.2039C129.202 39.1837 128.663 39.3095 128.143 39.5251C127.582 39.7574 127.081 40.0842 126.623 40.4805C126.604 40.4969 126.584 40.5118 126.563 40.5291C126.58 40.5726 126.592 40.6076 126.607 40.6418C126.731 40.9374 126.893 41.2083 127.12 41.4377C127.43 41.7506 127.806 41.9345 128.239 42.0005C129.118 42.1349 129.926 41.9382 130.668 41.4566C131.077 41.1911 131.435 40.8662 131.767 40.5107C131.775 40.5017 131.782 40.4912 131.795 40.4746V40.4745Z" fill="#FFFFFF"/>
<path d="M127.462 35.0367C127.313 35.1343 127.182 35.237 127.059 35.3495C126.352 35.9962 125.921 36.7928 125.781 37.7408C125.684 38.405 125.764 39.0468 126.068 39.6527C126.15 39.816 126.247 39.9698 126.363 40.1103C126.377 40.1078 126.388 40.1086 126.395 40.1045C127.01 39.7579 127.525 39.3048 127.879 38.6863C128.193 38.1371 128.36 37.5448 128.357 36.9107C128.355 36.2378 128.098 35.6684 127.626 35.1929C127.576 35.1417 127.522 35.0935 127.462 35.0368V35.0367Z" fill="#FFFFFF"/>
<path d="M137.61 1.94552C137.477 2.04025 137.336 2.12574 137.212 2.23161C136.888 2.50991 136.666 2.86286 136.509 3.25759C136.252 3.906 136.188 4.58113 136.244 5.27067C136.312 6.10129 136.554 6.88107 136.944 7.61603C136.957 7.64072 136.968 7.66641 136.982 7.69533C137.028 7.67871 137.064 7.66736 137.098 7.65337C137.628 7.43923 138.016 7.06667 138.295 6.57448C138.538 6.14549 138.668 5.68037 138.711 5.19223C138.795 4.23921 138.587 3.35338 138.079 2.54074C137.962 2.35349 137.826 2.1799 137.677 2.01679C137.658 1.99659 137.644 1.97228 137.628 1.94991C137.622 1.94847 137.616 1.94706 137.61 1.94563L137.61 1.94552Z" fill="#FFFFFF"/>
<path d="M132.391 0.832096C132.401 1.01259 132.405 1.1759 132.421 1.33813C132.517 2.33171 132.848 3.23726 133.45 4.03764C133.832 4.54503 134.298 4.95699 134.864 5.2509C135.116 5.3819 135.38 5.48402 135.657 5.5488C135.682 5.55444 135.706 5.55787 135.742 5.56446C135.753 5.53169 135.765 5.50058 135.773 5.4685C135.931 4.80726 135.92 4.15013 135.702 3.50448C135.434 2.71448 134.986 2.04306 134.334 1.51697C133.869 1.14152 133.33 0.935823 132.739 0.863239C132.631 0.849837 132.521 0.843621 132.391 0.832209L132.391 0.832096Z" fill="#FFFFFF"/>
<path d="M136.594 8.05941C136.576 7.98857 136.56 7.91846 136.54 7.84932C136.378 7.27715 136.116 6.75873 135.706 6.32234C135.274 5.86139 134.747 5.57434 134.119 5.48191C133.784 5.4326 133.453 5.46778 133.126 5.54608C132.896 5.60122 132.673 5.67971 132.46 5.78273C132.381 5.82081 132.305 5.86748 132.236 5.921C132.122 6.00902 132.087 6.12944 132.128 6.26698C132.147 6.3299 132.17 6.3933 132.203 6.44961C132.556 7.04867 132.992 7.57443 133.588 7.94566C134.24 8.3512 134.943 8.48853 135.697 8.3057C135.987 8.23519 136.275 8.15236 136.563 8.07484C136.572 8.07252 136.58 8.06649 136.594 8.05931L136.594 8.05941Z" fill="#FFFFFF"/>
<path d="M140.108 6.81725C140.041 6.82755 139.976 6.83426 139.912 6.84796C139.515 6.93318 139.199 7.15428 138.927 7.44605C138.645 7.74926 138.437 8.10055 138.277 8.48029C137.946 9.26273 137.821 10.0809 137.859 10.9264C137.879 11.3494 137.946 11.765 138.061 12.1727C138.072 12.2117 138.085 12.2502 138.098 12.2909C138.277 12.3054 138.448 12.2879 138.618 12.2498C139.074 12.1471 139.434 11.8932 139.713 11.5258C140.087 11.0344 140.33 10.4815 140.457 9.87812C140.566 9.36128 140.57 8.84113 140.499 8.31882C140.434 7.82995 140.305 7.35714 140.141 6.89331C140.132 6.87016 140.121 6.84815 140.108 6.81715L140.108 6.81725Z" fill="#FFFFFF"/>
<path d="M133.794 9.2524C133.866 9.60133 133.925 9.93931 134.006 10.2717C134.09 10.6126 134.276 10.9079 134.472 11.1946C134.745 11.5949 135.08 11.9332 135.503 12.1755C136.026 12.4747 136.588 12.6077 137.191 12.5397C137.274 12.5302 137.358 12.509 137.437 12.4788C137.56 12.4314 137.621 12.3338 137.628 12.2008C137.634 12.0698 137.609 11.9438 137.573 11.8194C137.471 11.4614 137.334 11.1165 137.173 10.7812C137.009 10.44 136.823 10.1107 136.597 9.80712C136.317 9.43164 135.944 9.1907 135.484 9.0981C135.254 9.0518 135.019 9.06588 134.788 9.09791C134.51 9.13637 134.234 9.18408 133.958 9.22764C133.908 9.23539 133.859 9.24257 133.794 9.2524Z" fill="#FFFFFF"/>
<path d="M125.74 40.7851C125.641 40.7682 125.555 40.7524 125.468 40.7391C125.391 40.7273 125.32 40.7432 125.25 40.7802C124.38 41.2404 123.509 41.6993 122.638 42.1585C122.635 42.1599 122.632 42.1616 122.63 42.1633C122.467 42.2587 122.356 42.4091 122.21 42.5417C122.365 42.5998 122.506 42.6523 122.646 42.7052C122.701 42.7259 122.75 42.71 122.8 42.6845C123.097 42.533 123.397 42.3872 123.691 42.2316C124.309 41.9057 124.923 41.5738 125.541 41.2474C125.623 41.2037 125.672 41.1448 125.688 41.0546C125.704 40.9685 125.721 40.8827 125.74 40.7851H125.74Z" fill="#FFFFFF"/>
</svg>
